PathFileType	4	(X/Y/Z)	 s02c0403.trc
DataRate	CameraRate	NumFrames	NumMarkers	Units	OrigDataRate	OrigDataStartFrame	OrigNumFrames
200	200	6	51	mm	200	1251	2000
Frame#	Time	racr			lacr			c7			jug			rlel			rdr			llel			ldr			s2			lic			ric			lasi			rasi			rpsi			lpsi			rgt			lgt			rth1			rth2			rth3			rth4			rlfc			rmfc			rsh1			rsh2			rsh3			rsh4			rlmal			rmmal			rcal			rtoe			rmt5			rmt1			lth1			lth2			lth4			lth3			llfc			lmfc			lsh1			lsh2			lsh3			lsh4			llmal			lmmal			lcal			ltoe			lmt5			SBIKE			LBIKE			RBIKE			
		X1	Y1	Z1	X2	Y2	Z2	X3	Y3	Z3	X4	Y4	Z4	X5	Y5	Z5	X6	Y6	Z6	X7	Y7	Z7	X8	Y8	Z8	X9	Y9	Z9	X10	Y10	Z10	X11	Y11	Z11	X12	Y12	Z12	X13	Y13	Z13	X14	Y14	Z14	X15	Y15	Z15	X16	Y16	Z16	X17	Y17	Z17	X18	Y18	Z18	X19	Y19	Z19	X20	Y20	Z20	X21	Y21	Z21	X22	Y22	Z22	X23	Y23	Z23	X24	Y24	Z24	X25	Y25	Z25	X26	Y26	Z26	X27	Y27	Z27	X28	Y28	Z28	X29	Y29	Z29	X30	Y30	Z30	X31	Y31	Z31	X32	Y32	Z32	X33	Y33	Z33	X34	Y34	Z34	X35	Y35	Z35	X36	Y36	Z36	X37	Y37	Z37	X38	Y38	Z38	X39	Y39	Z39	X40	Y40	Z40	X41	Y41	Z41	X42	Y42	Z42	X43	Y43	Z43	X44	Y44	Z44	X45	Y45	Z45	X46	Y46	Z46	X47	Y47	Z47	X48	Y48	Z48	X49	Y49	Z49	X50	Y50	Z50	X51	Y51	Z51	
1251	6.2550	801.498917	1229.516738	-154.654345	772.718886	1150.162910	-511.178468	803.471702	1247.778802	-347.754883	NaN	NaN	NaN	627.468809	1038.697831	-44.742684	711.087667	877.621155	-120.332041	559.658700	1002.666676	-633.451098	688.932637	884.792717	-513.758892	255.538459	1195.966386	-323.146972	391.784051	1139.649340	-468.076898	364.552001	1182.597620	-173.419032	424.846320	1099.319822	-434.140857	409.439495	1143.413142	-198.470582	273.916253	1226.230935	-285.882177	288.896796	1220.069459	-370.813570	326.852769	1097.033029	-127.891917	322.292607	1065.246487	-484.273338	404.894672	1030.125227	-128.866233	476.106091	978.496172	-132.021974	517.385768	907.350018	-107.528482	498.849003	994.423624	-159.642376	565.469370	773.326738	-134.013749	546.573275	756.596536	-243.855279	484.437178	696.461425	-117.059932	417.588177	638.534183	-135.013907	335.531106	616.601752	-128.870723	425.950469	626.625447	-172.953218	221.753742	568.238821	-132.418419	247.361710	578.006669	-213.759895	149.150933	608.520438	-179.674523	264.945823	345.113987	-190.333982	204.869641	434.362572	-127.939009	228.358485	419.694393	-235.958491	403.892167	948.620010	-497.277474	454.214761	877.917429	-489.280669	485.329812	890.571278	-475.939683	461.479332	789.641899	-487.372802	495.152939	698.871102	-464.170471	488.877917	668.072995	-366.542586	465.059365	598.058981	-489.571658	459.831310	513.043321	-476.158826	410.111369	437.122223	-480.868159	475.404170	509.812731	-438.593229	359.361339	343.112034	-472.229524	371.153997	334.449337	-395.403392	282.809012	317.314622	-436.600023	542.319744	188.382757	-435.673992	438.571848	214.424544	-497.946356	-125.895250	872.061788	-308.886817	37.222275	86.429561	-514.230306	33.903236	83.348257	-114.169745	
1252	6.2600	800.405741	1231.164914	-152.653627	773.964289	1152.373035	-509.671391	803.461527	1249.674312	-345.516643	NaN	NaN	NaN	626.950895	1038.547089	-43.575460	711.023815	877.745721	-120.243400	560.218163	1004.132753	-631.718334	689.273365	884.405378	-513.518220	254.838396	1193.658579	-324.897829	392.157198	1137.393330	-468.493630	363.545900	1181.988037	-174.327392	425.213945	1097.359999	-434.164185	408.928772	1143.327582	-199.444718	273.108684	1223.409281	-288.238705	288.524049	1217.291495	-372.481889	326.804545	1096.649461	-128.272730	322.396633	1062.023686	-484.372913	404.961935	1031.506711	-130.489997	478.718346	982.272642	-132.299468	521.659574	911.891426	-108.076578	501.162894	999.430237	-159.463001	572.761119	779.004764	-134.996318	553.514661	762.314061	-245.359358	491.584209	702.386552	-118.261256	424.161809	645.014731	-136.022473	341.551889	623.734483	-129.975019	432.170699	633.349394	-174.089187	227.960869	576.606055	-133.050590	253.430098	585.993651	-214.235137	154.722815	616.098611	-180.042113	272.869775	354.111200	-190.492053	211.997849	442.754148	-128.315765	235.433475	428.094647	-236.107449	401.402303	943.758022	-497.975722	449.694290	871.500870	-490.677889	481.298459	883.474030	-476.762099	454.594684	783.216431	-488.126914	486.016480	691.819259	-465.071600	479.374321	661.202840	-368.014554	456.122744	591.415459	-490.766772	451.804739	506.433872	-477.303316	402.776599	429.913087	-481.734713	467.578784	502.829624	-438.909933	353.608486	335.793289	-472.776265	365.533581	327.160088	-395.868966	277.253525	311.057775	-436.831847	535.152534	178.870773	-436.002767	431.756519	206.194416	-497.964835	-125.923441	872.040953	-308.941573	37.222331	86.385135	-514.245140	33.887778	83.354007	-114.178439	
1253	6.2650	799.222605	1232.771612	-150.170121	775.359491	1154.684271	-508.028759	803.384184	1251.475477	-343.292876	NaN	NaN	NaN	626.382898	1038.292161	-42.014807	710.933962	877.985713	-120.114734	560.863399	1005.877712	-629.966266	689.564446	884.128201	-513.389993	254.380890	1191.265974	-326.748646	392.324154	1135.129426	-468.855857	362.485507	1181.487492	-175.208394	425.545672	1095.498214	-434.180950	408.391438	1143.269292	-200.453302	271.855566	1223.616148	-289.016276	287.095156	1215.027619	-373.542467	326.796736	1096.357963	-128.692123	322.340258	1059.066446	-484.585140	406.271088	1033.639198	-130.711717	481.332155	986.104319	-132.595378	525.776740	916.776225	-108.046268	502.992732	1003.582563	-159.467974	579.889476	784.950906	-136.101106	563.195648	769.850450	-247.088501	498.722584	708.515392	-119.525469	430.784598	651.788578	-137.305202	348.044359	631.070553	-130.872449	439.778506	641.351021	-172.600075	234.463841	584.448755	-133.765884	259.196947	594.044426	-215.188471	160.541863	623.376828	-180.337174	281.190776	362.476447	-190.702646	219.612349	450.706123	-128.630679	242.027927	437.306288	-235.455721	398.515203	939.321794	-498.571511	444.993498	865.849471	-491.077206	476.837413	876.882313	-477.722391	446.808100	777.943611	-489.799089	476.475479	685.353625	-466.264697	469.518335	654.963920	-369.574121	447.020978	585.263586	-492.040696	443.510926	500.223833	-478.284627	395.191954	423.256028	-482.565635	459.216651	497.395989	-440.523831	347.453654	328.932233	-473.326761	359.409159	320.403414	-396.379390	271.214222	305.292139	-437.210973	527.538417	169.825441	-435.836213	424.538238	198.411655	-498.013030	-125.944192	872.034715	-308.988039	37.222953	86.349859	-514.249693	33.893346	83.340998	-114.183315	
1254	6.2700	798.070955	1233.975529	-147.937350	776.823538	1157.092731	-506.220166	803.386647	1253.307034	-340.897898	NaN	NaN	NaN	625.430573	1038.027815	-40.571993	710.838571	878.280968	-119.856273	561.578176	1008.079611	-628.187635	689.886431	884.053027	-513.511729	253.981407	1189.038048	-328.868619	392.763736	1133.174776	-469.276392	361.483050	1181.103449	-176.129733	425.839033	1093.747330	-434.192018	407.788161	1143.364072	-201.474505	271.241285	1221.207305	-291.151841	286.671171	1212.716927	-375.275940	326.656185	1096.228330	-129.085684	322.066313	1056.437026	-484.713850	407.501801	1035.948007	-130.713600	483.759343	990.132495	-132.951334	529.909353	921.723905	-109.111914	504.765592	1008.310750	-159.554682	586.903119	791.097316	-137.607515	568.452756	775.760437	-247.647376	505.879741	714.713971	-120.810845	437.582353	658.391116	-138.418927	355.164009	638.297967	-131.857669	445.329743	647.281672	-175.410015	241.370834	591.884804	-134.575916	265.522195	601.498872	-216.077310	166.725583	630.135235	-180.832686	289.976151	370.561984	-190.793151	227.802150	458.184291	-128.978906	249.558849	445.315056	-235.514392	395.160195	935.459146	-499.447795	439.849337	860.738166	-492.017750	472.003107	871.031724	-478.712845	440.260762	772.015350	-489.307308	466.971435	679.546512	-467.348602	459.548092	649.290787	-370.954107	437.798004	579.624432	-493.210713	435.017007	494.682304	-479.527558	387.333572	417.295275	-483.457530	450.814117	492.001603	-441.682704	340.963761	322.630890	-473.981737	352.593031	314.435707	-397.101388	264.781989	300.148820	-437.619814	519.353793	161.189839	-435.586530	416.884249	191.142747	-498.020743	-125.970012	872.010985	-309.009511	37.221300	86.345834	-514.246859	33.891526	83.349135	-114.191268	
1255	6.2750	796.908292	1235.063829	-145.443670	778.127591	1159.785653	-505.219812	803.649437	1255.097516	-338.086775	NaN	NaN	NaN	624.934625	1037.790473	-38.663360	710.741150	878.611607	-119.492873	562.421406	1010.485456	-626.335128	690.253106	884.098729	-513.792858	253.666162	1187.309158	-330.892293	392.990498	1131.159790	-469.729092	360.570649	1180.757662	-177.133927	426.091554	1092.120214	-434.198255	407.235408	1143.496710	-202.455180	270.478333	1219.200882	-293.302888	286.179407	1210.539821	-376.979194	326.472876	1096.358954	-129.386742	321.658138	1054.023029	-484.843283	408.634171	1038.374997	-130.710253	485.447062	993.972267	-132.835455	533.823792	926.797650	-109.730685	506.549021	1012.766866	-160.373731	593.829785	797.591337	-138.687237	575.039994	782.426279	-249.870814	513.043073	721.133999	-122.106822	444.804788	665.543856	-139.175311	361.940466	645.101246	-132.856248	451.947109	653.294727	-177.237999	248.531846	598.866425	-135.441836	272.245371	608.462845	-216.935968	173.180018	636.292048	-181.127958	299.247524	378.029584	-191.028559	236.424028	465.097220	-129.347335	258.149299	451.175983	-236.540072	391.784170	931.998308	-500.196842	434.551826	856.220112	-492.962967	466.985468	865.684149	-479.807926	432.720420	767.561021	-490.378544	457.359949	674.532000	-468.455409	449.559448	644.434359	-372.083922	428.455988	574.603346	-494.468125	426.454802	489.666461	-480.593003	379.292096	411.904861	-484.461111	442.234079	487.141060	-442.783306	334.259363	316.823636	-474.677861	345.842419	308.796453	-397.704306	258.126037	295.546640	-438.037352	510.806801	152.854106	-435.274674	408.759608	184.357871	-498.124580	-125.948920	872.034252	-308.871143	37.230198	86.332740	-514.252507	33.903412	83.320188	-114.182615	
1256	6.2800	795.757709	1235.985191	-142.887892	779.662589	1162.214952	-502.913561	803.733374	1256.724388	-335.258696	NaN	NaN	NaN	624.412787	1037.556289	-36.975804	710.606152	878.854827	-119.114169	563.355931	1013.079899	-624.466308	690.721901	884.199147	-514.236461	253.562326	1185.745886	-332.212887	392.995871	1129.056250	-470.245335	359.953260	1180.686073	-177.371721	426.300765	1090.629730	-434.200526	406.647024	1143.740875	-203.649511	269.439245	1217.526956	-295.397810	285.877709	1208.707773	-378.723385	326.049729	1096.696726	-129.940287	321.018128	1051.918678	-485.021282	409.733908	1040.789318	-130.527094	487.474637	998.031578	-133.844370	537.264216	932.046804	-110.326283	507.737464	1017.115973	-161.444428	600.526744	804.333226	-139.977211	582.367417	788.862069	-249.070214	520.238868	727.538100	-123.360850	451.760818	671.948484	-140.481265	368.925636	651.652447	-133.970262	458.928695	659.814714	-178.501412	256.010027	605.344378	-136.317900	279.186780	614.995811	-217.890671	179.962959	641.898027	-181.440087	308.473882	384.926101	-191.715026	245.285214	471.537522	-129.645988	266.254352	457.672311	-237.333228	388.362170	929.117370	-500.888890	429.203725	852.323253	-493.862028	461.875939	860.894602	-480.922660	425.213231	763.674311	-491.430609	447.837553	670.393467	-469.608250	439.662666	640.199111	-373.240472	419.140819	570.204769	-495.663983	417.667653	485.135232	-481.602452	371.127230	407.119940	-485.438345	433.528040	482.823752	-443.852254	327.326316	311.710248	-475.479450	338.836881	303.751797	-398.417530	251.280894	291.677973	-438.692587	501.650005	144.605070	-434.457770	400.455101	178.069414	-498.217329	-125.986178	872.028645	-308.876027	37.226577	86.301734	-514.277458	33.892301	83.329332	-114.197981	
